<?xml version="1.0" encoding="UTF-8"?>
<svg id="Layer_1" data-name="Layer 1" xmlns="http://www.w3.org/2000/svg" viewBox="0 0 300 300" width="16" height="16">
  <defs>
    <style>
      .cls-1 {
        fill: #fff;
        stroke: #000;
        stroke-miterlimit: 10;
        stroke-width: 20px;
      }
    </style>
  </defs>
  <path class="cls-1" d="M235.89,41.13v5.62c0,14.8-11.99,26.79-26.79,26.79l-83.41-.05c-3.18,0-4.78,3.85-2.53,6.1l153.64,153.66c10.46,10.46,10.46,27.43,0,37.89l-6.73,6.73c-10.46,10.46-27.43,10.46-37.89,0L80.81,126.48c-2.25-2.25-6.1-.66-6.1,2.53v82.92c0,14.8-12,26.79-26.8,26.79h-5.62c-14.8,0-26.79-11.99-26.79-26.79l.06-146.42-.04-.49c-.13-.49-.13-1.02-.13-1.56l-.03-36.73c0-6.87,5.56-12.43,12.43-12.43l181.33.05c14.8,0,26.79,11.99,26.79,26.79Z"/>
</svg>
