<?xml version="1.0" encoding="UTF-8"?>
<svg id="Layer_1" data-name="Layer 1" xmlns="http://www.w3.org/2000/svg" viewBox="0 0 300 300">
  <defs>
    <style>
      .cls-1 {
        fill: #fff;
        stroke: #000;
        stroke-miterlimit: 10;
        stroke-width: 5px;
      }

      .cls-2 {
        fill: #ff7800;
      }

      .cls-3 {
        fill: #004bc8;
      }
    </style>
  </defs>
  <rect class="cls-1" x="9.93" y="99.01" width="280.14" height="107.82"/>
  <rect class="cls-2" x="193.93" y="114.06" width="78.92" height="77.7"/>
  <polygon class="cls-3" points="233.39 125.77 202.03 180.06 264.74 180.06 233.39 125.77"/>
  <g>
    <ellipse cx="85.09" cy="120.33" rx="7.71" ry="7.59"/>
    <path d="M119.91,149.88v1.77c0,1.7-1.4,3.08-3.13,3.08h-19.34c-.83,0-1.63-.32-2.21-.9l-11.29-11.11c-.5-.48-1.49-1.31-2.97-1.78,0,0-1.13-.35-2.23-.35-3.92,0-7.11,3.13-7.11,7s3.1,6.91,6.96,6.99c3.8,0,7.6.01,11.4.02,1.57.17,2.79,1.47,2.79,3.06v3.23c0,.82-.33,1.6-.92,2.18l-22.04,21.7c-1.22,1.2-3.2,1.2-4.42,0l-1.34-1.32c-1.22-1.2-1.22-3.15,0-4.36l11.85-11.66c1.97-1.94.57-5.26-2.21-5.26h-10.79c-.82,0-1.61.32-2.2.89l-29.72,28.86c-1.23,1.19-3.19,1.18-4.41-.01l-1.36-1.34c-1.22-1.2-1.22-3.15,0-4.36l27.09-26.67c.78-.77,1.07-1.89.82-2.95,0,0,0-.01,0-.02-.08-.34-.2-.96-.2-1.74,0-.97.19-1.8.41-2.43.06-.17.13-.33.21-.49,2.77-5.09,5.53-10.18,8.29-15.26,1.11-2.05-.39-4.53-2.76-4.53h-4.96c-.83,0-1.63.32-2.21.9l-10.7,10.53c-1.22,1.2-3.2,1.2-4.42,0l-1.33-1.31c-1.22-1.2-1.22-3.15,0-4.35l13.01-12.81c.58-.57,1.37-.89,2.19-.9,11.77-.08,20.36-.1,22.74-.08.39,0,1.25.02,2.29.34,1.45.44,2.71,1.3,3.66,2.42,0,0,.01.02.02.02l19.33,19.03c.59.58,1.38.9,2.21.9h15.86c1.73,0,3.13,1.38,3.13,3.08Z"/>
    <polygon points="68 113.48 67.94 113.54 67.94 113.48 68 113.48"/>
  </g>
  <path d="M158.47,169.83l-.57-.56c-1.49-1.47-1.49-3.85,0-5.32l8.41-8.27c.32-.32.09-.86-.36-.86h-30.97c-2.11,0-3.82-1.69-3.82-3.76v-1.34c0-2.08,1.71-3.76,3.82-3.76h30.51c.45,0,.68-.54.36-.85l-8.36-8.23c-1.49-1.47-1.49-3.85,0-5.32l.57-.56c1.49-1.47,3.91-1.47,5.4,0l14.75,14.53.05.04c.06.04.12.09.17.14l3.7,3.64c.69.68.69,1.79,0,2.47l-18.28,17.99c-1.49,1.47-3.91,1.47-5.4,0Z"/>
</svg>