<?xml version="1.0" encoding="UTF-8"?>
<svg id="Layer_1" data-name="Layer 1" xmlns="http://www.w3.org/2000/svg" viewBox="0 0 300 300">
  <defs>
    <style>
      .cls-1 {
        fill: #fff;
      }

      .cls-2 {
        fill: #ff7800;
      }

      .cls-3 {
        fill: #004bc8;
      }
    </style>
  </defs>
  <g>
    <rect class="cls-1" x="77.88" y="77.88" width="144.24" height="144.24" transform="translate(-62.13 150) rotate(-45)"/>
    <path d="M150,256.24l-106.24-106.24,106.24-106.24,106.24,106.24-106.24,106.24ZM52.25,150l97.75,97.75,97.75-97.75-97.75-97.75-97.75,97.75Z"/>
  </g>
  <polygon points="150 243.84 69.68 163.52 230.32 163.52 150 243.84"/>
  <rect class="cls-2" x="135.6" y="173.84" width="28.79" height="28.79"/>
  <polygon class="cls-3" points="150 178.18 138.56 198.3 161.44 198.3 150 178.18"/>
  <path d="M173.92,129.28c-.31.07-.46.38-.31.64l6.23,10.4c.58.97-.59,2.04-1.64,1.5l-17.02-8.65c-.31-.16-.68.05-.68.37v12.61c0,1.04.46,2.05,1.27,2.78l4.47,4.02c.26.24.7.13.82-.19l1.88-5.17c.52-1.43,2.73-1.43,3.25,0l4.11,11.31c.32.89-.27,1.81-1.2,2.03-.24.05-.13.03-.42.05h-50.14c-.25,0-.49-.05-.7-.13-.77-.32-1.22-1.14-.92-1.95l4.11-11.31c.52-1.43,2.72-1.43,3.25,0l1.79,4.93c.12.32.56.42.82.19l4.56-4.11c.81-.73,1.27-1.73,1.27-2.78v-12.31c0-.32-.37-.53-.68-.37l-17.1,8.69c-1.06.53-2.21-.53-1.63-1.5l6.34-10.59c.15-.25,0-.55-.29-.63-7.28-1.97-12.61-8.17-12.61-15.52s5.14-13.36,12.24-15.43c.29-.08.43-.39.28-.63l-5.96-9.96c-.58-.97.58-2.04,1.63-1.51l12.41,6.3c.25.13.56.02.67-.22,2.59-5.56,8.58-9.46,15.57-9.46,6.99,0,12.98,3.89,15.57,9.45.11.24.42.34.67.22l12.4-6.29c1.06-.53,2.22.54,1.64,1.51l-5.84,9.75c-.15.25,0,.56.3.64,7.48,1.86,12.98,8.15,12.98,15.63,0,7.6-5.7,13.98-13.36,15.71Z"/>
  <g>
    <g>
      <path class="cls-1" d="M157.61,163.34h0c-.7.24-1.46-.13-1.7-.82l-4.65-13.31c-.42-1.19-2.1-1.19-2.52,0l-4.65,13.31c-.24.69-1,1.06-1.7.82-.55-.19-.9-.71-.9-1.25,0-.15.02-.29.08-.44l5.78-16.55c.05-.14.07-.29.07-.44v-3.03s0-.04,0-.06h0c0-1.19,0-2.36,0-3.54,0-.35-.14-.68-.38-.92l-4.34-4.32c-.25-.24-.38-.58-.38-.92v-2c0-.35.14-.68.38-.92l2.81-2.8c.51-.51,1.34-.51,1.85,0l.05.05c.51.51.51,1.33,0,1.84-.18.11-2.07,1.34-2.04,3.18.04,2.09,2.55,3.55,4.62,3.55s4.58-1.45,4.62-3.55c.03-1.84-1.86-3.07-2.04-3.18-.51-.51-.51-1.33,0-1.84l.05-.05c.51-.51,1.34-.51,1.85,0l2.81,2.8c.25.24.38.58.38.92v2c0,.35-.14.68-.38.92l-4.34,4.32c-.25.24-.38.58-.38.92,0,1.2,0,2.4,0,3.6v3.03c0,.15.03.3.07.44l5.78,16.55c.24.69-.13,1.45-.82,1.69Z"/>
      <path class="cls-1" d="M152.57,143.64h0v-2.01c0,.67,0,1.34,0,2.01Z"/>
    </g>
    <circle class="cls-1" cx="150" cy="131.57" r="2.53"/>
  </g>
</svg>
