<?xml version="1.0" encoding="UTF-8"?>
<svg id="Layer_1" data-name="Layer 1" xmlns="http://www.w3.org/2000/svg" viewBox="0 0 300 300">
  <defs>
    <style>
      .cls-1 {
        fill: #fff;
      }

      .cls-2 {
        fill: #ff7800;
      }

      .cls-3 {
        fill: #004bc8;
      }
    </style>
  </defs>
  <g>
    <rect class="cls-1" x="66.04" y="66.04" width="167.91" height="167.91"/>
    <path d="M236.96,236.96H63.04V63.04h173.91v173.91ZM69.04,230.96h161.91V69.04H69.04v161.91Z"/>
  </g>
  <rect class="cls-2" x="138.08" y="75.26" width="86.48" height="86.48"/>
  <polygon class="cls-3" points="181.32 88.28 146.96 148.71 215.68 148.71 181.32 88.28"/>
  <g>
    <path d="M161.9,114.94c0,2.77-2.25,5.02-5.02,5.02-2.77,0-5.02-2.25-5.02-5.02s2.25-5.02,5.02-5.02c2.77,0,5.02,2.25,5.02,5.02Z"/>
    <path d="M167.89,129.59v18.18c0,1.2-.98,2.3-2.18,2.37-.72.04-1.37-.26-1.82-.74-.22-.23-.61-.08-.61.24v29.77c0,1.69-1.4,3.05-3.1,3-1.63-.05-2.9-1.45-2.9-3.08v-27.45c0-.22-.16-.42-.38-.44,0,0-.02,0-.03,0s-.02,0-.03,0c-.22.01-.38.22-.38.44v27.45c0,1.63-1.27,3.02-2.9,3.08-1.7.06-3.1-1.31-3.1-3v-29.77c0-.32-.39-.47-.61-.24-.45.48-1.1.78-1.82.74-1.2-.06-2.18-1.16-2.18-2.37v-18.18c0-1.29.52-2.54,1.43-3.45l2.01-2.01c1.22-1.22,2.88-1.91,4.6-1.91h5.94c1.73,0,3.38.69,4.6,1.91l2.01,2.01c.91.92,1.43,2.16,1.43,3.45Z"/>
  </g>
  <g>
    <path d="M138.89,128.6c0,2.77-2.25,5.02-5.02,5.02-2.77,0-5.02-2.25-5.02-5.02s2.25-5.02,5.02-5.02c2.77,0,5.02,2.25,5.02,5.02Z"/>
    <path d="M144.88,143.25v18.18c0,1.2-.98,2.3-2.18,2.37-.72.04-1.37-.26-1.82-.74-.22-.23-.61-.08-.61.24v29.77c0,1.69-1.4,3.05-3.1,3-1.63-.05-2.9-1.45-2.9-3.08v-27.45c0-.22-.16-.42-.38-.44,0,0-.02,0-.03,0s-.02,0-.03,0c-.22.01-.38.22-.38.44v27.45c0,1.63-1.27,3.02-2.9,3.08-1.7.06-3.1-1.31-3.1-3v-29.77c0-.32-.39-.47-.61-.24-.45.48-1.1.78-1.82.74-1.2-.06-2.18-1.16-2.18-2.37v-18.18c0-1.29.52-2.54,1.43-3.45l2.01-2.01c1.22-1.22,2.88-1.91,4.6-1.91h5.94c1.73,0,3.38.69,4.6,1.91l2.01,2.01c.91.92,1.43,2.16,1.43,3.45Z"/>
  </g>
  <g>
    <path d="M115.88,141.14c0,2.77-2.25,5.02-5.02,5.02-2.77,0-5.02-2.25-5.02-5.02s2.25-5.02,5.02-5.02c2.77,0,5.02,2.25,5.02,5.02Z"/>
    <path d="M121.87,155.79v18.18c0,1.2-.98,2.3-2.18,2.37-.72.04-1.37-.26-1.82-.74-.22-.23-.61-.08-.61.24v29.77c0,1.69-1.4,3.05-3.1,3-1.63-.05-2.9-1.45-2.9-3.08v-27.45c0-.22-.16-.42-.38-.44,0,0-.02,0-.03,0s-.02,0-.03,0c-.22.01-.38.22-.38.44v27.45c0,1.63-1.27,3.02-2.9,3.08-1.7.06-3.1-1.31-3.1-3v-29.77c0-.32-.39-.47-.61-.24-.45.48-1.1.78-1.82.74-1.2-.06-2.18-1.16-2.18-2.37v-18.18c0-1.29.52-2.54,1.43-3.45l2.01-2.01c1.22-1.22,2.88-1.91,4.6-1.91h5.94c1.73,0,3.38.69,4.6,1.91l2.01,2.01c.91.92,1.43,2.16,1.43,3.45Z"/>
  </g>
  <g>
    <path d="M92.87,156.34c0,2.77-2.25,5.02-5.02,5.02-2.77,0-5.02-2.25-5.02-5.02s2.25-5.02,5.02-5.02c2.77,0,5.02,2.25,5.02,5.02Z"/>
    <path d="M98.86,170.99v18.18c0,1.2-.98,2.3-2.18,2.37-.72.04-1.37-.26-1.82-.74-.22-.23-.61-.08-.61.24v29.77c0,1.69-1.4,3.05-3.1,3-1.63-.05-2.9-1.45-2.9-3.08v-27.45c0-.22-.16-.42-.38-.44,0,0-.02,0-.03,0s-.02,0-.03,0c-.22.01-.38.22-.38.44v27.45c0,1.63-1.27,3.02-2.9,3.08-1.7.06-3.1-1.31-3.1-3v-29.77c0-.32-.39-.47-.61-.24-.45.48-1.1.78-1.82.74-1.2-.06-2.18-1.16-2.18-2.37v-18.18c0-1.29.52-2.54,1.43-3.45l2.01-2.01c1.22-1.22,2.88-1.91,4.6-1.91h5.94c1.73,0,3.38.69,4.6,1.91l2.01,2.01c.91.92,1.43,2.16,1.43,3.45Z"/>
  </g>
</svg>
