<?xml version="1.0" encoding="UTF-8"?>
<svg id="Layer_1" data-name="Layer 1" xmlns="http://www.w3.org/2000/svg" viewBox="0 0 300 300">
  <defs>
    <style>
      .cls-1 {
        fill: #fff;
        stroke: #000;
        stroke-miterlimit: 10;
        stroke-width: 5.86px;
      }
    </style>
  </defs>
  <rect class="cls-1" x="66.35" y="66.35" width="167.3" height="167.3"/>
  <g>
    <circle cx="153.58" cy="110.85" r="10.05"/>
    <path d="M198.98,149.97v2.34c0,2.25-1.83,4.08-4.08,4.08h-25.21c-1.08,0-2.12-.43-2.88-1.19l-14.71-14.71c-.65-.64-1.94-1.73-3.87-2.35,0,0-1.47-.47-2.91-.47-5.12,0-9.26,4.15-9.26,9.26s4.05,9.16,9.07,9.25c4.96,0,9.91.02,14.87.03,2.04.22,3.64,1.95,3.64,4.06v4.28c0,1.08-.43,2.12-1.19,2.88l-28.73,28.73c-1.59,1.59-4.18,1.59-5.77,0l-1.75-1.75c-1.59-1.59-1.59-4.17,0-5.77l15.45-15.44c2.57-2.57.75-6.96-2.88-6.96h-14.06c-1.07,0-2.1.42-2.86,1.17l-38.74,38.21c-1.6,1.57-4.16,1.56-5.75-.02l-1.77-1.77c-1.59-1.59-1.59-4.17,0-5.77l35.31-35.31c1.02-1.02,1.4-2.5,1.06-3.91,0,0,0-.02,0-.02-.11-.45-.27-1.27-.27-2.3,0-1.28.25-2.38.53-3.22.07-.22.17-.44.28-.65,3.61-6.74,7.21-13.47,10.81-20.21,1.45-2.72-.51-6-3.6-6h-6.47c-1.08,0-2.12.43-2.88,1.19l-13.95,13.95c-1.59,1.59-4.18,1.59-5.77,0l-1.73-1.73c-1.59-1.59-1.59-4.17,0-5.76l16.96-16.97c.76-.76,1.78-1.18,2.85-1.19,15.35-.11,26.54-.13,29.64-.1.51,0,1.62.03,2.98.45,1.89.59,3.54,1.72,4.77,3.2,0,.01.02.02.03.03l25.2,25.2c.76.76,1.8,1.19,2.88,1.19h20.67c2.25,0,4.08,1.83,4.08,4.08Z"/>
    <polygon points="131.31 101.77 131.23 101.85 131.23 101.77 131.31 101.77"/>
  </g>
  <path d="M198.35,174.11l-.66-.66c-1.74-1.74-1.74-4.56,0-6.3l9.81-9.8c.37-.37.11-1.01-.42-1.01h-36.12c-2.46,0-4.45-2-4.45-4.46v-1.58c0-2.46,1.99-4.45,4.45-4.45h35.59c.53,0,.79-.64.42-1.01l-9.75-9.75c-1.74-1.74-1.74-4.56,0-6.3l.66-.66c1.74-1.74,4.56-1.74,6.3,0l17.21,17.22.06.05c.07.04.14.1.2.17l4.32,4.31c.81.81.81,2.12,0,2.92l-21.32,21.31c-1.74,1.74-4.56,1.74-6.3,0Z"/>
</svg>
