<?xml version="1.0" encoding="UTF-8"?>
<svg id="Layer_1" data-name="Layer 1" xmlns="http://www.w3.org/2000/svg" viewBox="0 0 300 300">
  <defs>
    <style>
      .cls-1 {
        fill: #fff;
      }

      .cls-2 {
        fill: #ff7800;
      }
    </style>
  </defs>
  <circle cx="150" cy="150" r="93.82"/>
  <g>
    <circle class="cls-1" cx="150" cy="150" r="83.15"/>
    <path class="cls-2" d="M150,237.89c-48.46,0-87.89-39.42-87.89-87.89s39.42-87.89,87.89-87.89,87.89,39.42,87.89,87.89-39.42,87.89-87.89,87.89ZM150,71.59c-43.24,0-78.41,35.17-78.41,78.41s35.17,78.41,78.41,78.41,78.41-35.17,78.41-78.41-35.17-78.41-78.41-78.41Z"/>
  </g>
  <path d="M193.58,157.39c1.04,1.44,1.16,2.92,1.18,3.48v35.85c0,3.54-2.55,6.66-6.06,7.12-2.31.3-4.44-.52-5.91-1.99-1.27-1.27-2.05-3.03-2.05-4.96v-19.08c0-2.4-1.94-4.33-4.33-4.33h-4.51c-4.89,0-8.85-3.96-8.85-8.85h-20.19c-5.38,0-9.74,4.36-9.74,9.74v22.37c0,3.54-2.56,6.66-6.07,7.12-2.31.3-4.43-.52-5.91-1.99-1.27-1.27-2.05-3.02-2.05-4.96v-38.88c-2.86-3.4-4.58-7.79-4.58-12.58v-16.75h-4.64c-7.19,0-13.01-5.83-13.01-13.02h14.85v-.74c0-.32.02-.64.05-.95.56-5.89,6.28-10.52,13.26-10.52,1.56,0,3.06.23,4.45.66v-8.84c2.44,0,4.66.99,6.27,2.59,1.6,1.6,2.59,3.82,2.59,6.27v18.92c0,4.67,3.79,8.46,8.46,8.46h28.67c2.31,0,4.44.72,6.19,1.96l13.15-9.86c3.44,4.59,2.52,11.1-2.08,14.55l-3.49,2.61c-.42.32-.81.67-1.15,1.06-.06.06-.11.13-.16.19-1.56,1.43-2.53,3.48-2.53,5.76,0,1.26.3,2.44.83,3.49.86,1.73,2.36,3.09,4.19,3.79.53.17,2.04.74,3.18,2.31Z"/>
  <rect class="cls-2" x="67.29" y="144.84" width="165.41" height="9.48" transform="translate(-61.84 149.88) rotate(-45)"/>
</svg>
