<?xml version="1.0" encoding="UTF-8"?>
<svg id="Layer_1" data-name="Layer 1" xmlns="http://www.w3.org/2000/svg" viewBox="0 0 300 300">
  <defs>
    <style>
      .cls-1 {
        fill: #fff;
      }

      .cls-2 {
        fill: #ff7800;
      }

      .cls-3 {
        fill: #004bc8;
      }
    </style>
  </defs>
  <g>
    <rect class="cls-1" x="66.44" y="65.78" width="167.12" height="167.12"/>
    <path d="M236.56,235.89H63.44V62.78h173.12v173.12ZM69.44,229.89h161.12V68.78H69.44v161.12Z"/>
  </g>
  <rect class="cls-2" x="137.35" y="75.37" width="86.07" height="86.07"/>
  <polygon class="cls-3" points="180.38 88.34 146.19 148.48 214.58 148.48 180.38 88.34"/>
  <g>
    <path d="M148.76,117.75c0,9.18-7.44,16.62-16.62,16.62-9.18,0-16.62-7.44-16.62-16.62s7.44-16.62,16.62-16.62c9.18,0,16.62,7.45,16.62,16.62Z"/>
    <path d="M110.94,232.55c0-1.06-1.29-1.56-2.01-.78-1.48,1.6-3.63,2.57-6.02,2.44-3.98-.2-7.22-3.85-7.22-7.83v-60.16c0-4.28,1.71-8.39,4.73-11.41l6.67-6.67c4.04-4.04,9.51-6.31,15.23-6.31h19.65c5.71,0,11.19,2.28,15.23,6.32l6.67,6.66c3.03,3.03,4.73,7.13,4.73,11.41v60.16c0,3.98-3.24,7.62-7.22,7.83-2.39.12-4.54-.85-6.02-2.44-.72-.78-2.01-.28-2.01.78h-42.4Z"/>
  </g>
  <g>
    <path class="cls-1" d="M158.65,213.46c-3.74,0-4.95-1.21-7.86-4.12l-.13-.13-13.21-15.59s-.07-.08-.1-.13c-.53-.79-1.42-2.45-1.42-4.62v-14.97c0-3,2.44-5.47,5.44-5.5h2.3c3.06-.01,5.52,2.44,5.54,5.44l.05,7.72c0,1.23.23,3.61.44,4.29.05.08.09.17.14.28,1.4,3.61,4.93,6.03,8.8,6.03.12,0,.24,0,.36,0,2.55-.09,4.89-1.24,6.59-3.23,1.87-2.18,2.74-5.1,2.39-8-.68-5.69-4.7-7.74-7.94-9.39-.55-.28-1.07-.54-1.54-.81-4.2-2.35-6.08-3.98-6.08-7.44v-36.53c.01-3.03,2.48-5.5,5.51-5.5h2c1.47,0,2.85.57,3.89,1.61,1.04,1.04,1.61,2.42,1.61,3.89v30.9c.01.07.07.13.14.13h.32c.07,0,.13-.06.13-.13v-37.34c0-3.03,2.47-5.5,5.5-5.5h2c3.03,0,5.5,2.47,5.5,5.5v37.38c0,.07.06.12.13.12h.35c.06,0,.11-.05.11-.12v-31.88c-.01-3.03,2.45-5.5,5.48-5.5h2.01c3.04,0,5.51,2.46,5.51,5.5v31.86c0,.07.05.12.12.12h.34c.06,0,.12-.05.12-.12v-24.42c0-3.03,2.47-5.5,5.5-5.5h2.01c1.47,0,2.85.57,3.89,1.62,1.04,1.04,1.61,2.43,1.6,3.9l-.2,69.39c-.01,5.65-5.53,9.98-10.63,10.75-.07.01-.14.02-.21.02l-36.48.02h0Z"/>
    <path d="M200.67,129.17c2.27,0,4.1,1.84,4.09,4.11l-.2,69.39c-.01,4.95-5.03,8.7-9.44,9.37l-36.48.02c-3.21,0-4-.84-7-3.84l-13.13-15.5c-.56-.84-1.18-2.21-1.18-3.84v-14.97c0-2.25,1.81-4.07,4.05-4.09h2.29c2.27-.04,4.12,1.79,4.13,4.05.01,2.47.04,5.56.05,7.72,0,1.13.23,4.39.64,5.05l.02.02c1.61,4.17,5.73,7.09,10.52,6.92,6.5-.24,11.09-6.34,10.32-12.8-.89-7.45-6.82-9.37-10.19-11.26-4.07-2.28-5.36-3.58-5.36-6.21v-36.53c.01-2.26,1.84-4.09,4.1-4.09h2c2.26,0,4.1,1.83,4.1,4.09v30.9c.01.85.7,1.54,1.56,1.54h.31c.84,0,1.52-.69,1.52-1.54v-37.34c0-2.26,1.83-4.09,4.09-4.09h2c2.26,0,4.09,1.83,4.09,4.09v37.38c0,.84.68,1.52,1.53,1.53.12,0,.23,0,.35,0,.84,0,1.52-.69,1.52-1.53v-31.88c-.01-2.26,1.82-4.09,4.08-4.1h2.01c2.26,0,4.1,1.83,4.1,4.09v31.86c0,.84.68,1.52,1.52,1.52h.34c.84,0,1.52-.68,1.52-1.52v-24.42c0-2.26,1.83-4.09,4.09-4.09h2.01Z"/>
  </g>
</svg>
