<?xml version="1.0" encoding="UTF-8"?>
<svg id="Layer_1" data-name="Layer 1" xmlns="http://www.w3.org/2000/svg" viewBox="0 0 300 300">
  <path d="M193.3,164.65c-.56.14-.84.75-.56,1.25l11.27,20.44c1.04,1.91-1.06,4-2.97,2.96l-30.81-17.01c-.56-.31-1.23.1-1.23.73v24.77c0,2.05.83,4.02,2.3,5.45l8.09,7.91c.47.47,1.27.26,1.48-.37l3.41-10.16c.94-2.82,4.94-2.82,5.88,0l7.44,22.22c.57,1.76-.49,3.56-2.17,3.98-.43.1-.23.05-.77.1h-90.75c-.45,0-.89-.1-1.27-.26-1.39-.63-2.21-2.24-1.67-3.83l7.44-22.22c.94-2.82,4.92-2.82,5.88,0l3.23,9.69c.21.63,1.01.82,1.48.37l8.26-8.08c1.47-1.44,2.29-3.4,2.29-5.45v-24.2c0-.63-.68-1.04-1.23-.73l-30.95,17.08c-1.91,1.04-4-1.04-2.96-2.96l11.47-20.82c.27-.49,0-1.09-.53-1.24-13.18-3.87-22.82-16.06-22.82-30.51s9.31-26.25,22.16-30.32c.52-.17.77-.76.51-1.24l-10.79-19.57c-1.04-1.91,1.04-4.02,2.96-2.97l22.46,12.39c.45.25,1,.05,1.21-.43,4.69-10.93,15.54-18.59,28.19-18.59s23.5,7.65,28.19,18.57c.2.47.76.67,1.21.43l22.44-12.37c1.91-1.04,4.02,1.06,2.97,2.97l-10.57,19.16c-.27.49,0,1.1.54,1.25,13.54,3.65,23.5,16.01,23.5,30.72s-10.31,27.47-24.19,30.87Z"/>
</svg>