<?xml version="1.0" encoding="UTF-8"?>
<svg id="Layer_1" data-name="Layer 1" xmlns="http://www.w3.org/2000/svg" viewBox="-50 -50 400 400">
  <rect fill="#ff7800" x="78.47" y="78.47" width="143.06" height="143.06"/>
  <path fill="#004bc8" d="M169.61,134.92c.49-.49.14-1.32-.54-1.32h-18.5c-15.83,0-29.72,10.34-31.17,26.11-.71,7.63,1.6,15.09,6.51,20.98,4.9,5.9,11.8,9.54,19.44,10.24,10.87,1,21.22-4.14,27-13.41,1.98-3.17,6.17-4.15,9.35-2.17,3.18,1.99,4.15,6.17,2.16,9.35-7.82,12.52-21.27,19.92-35.81,19.92-1.3,0-2.63-.05-3.95-.19-11.25-1.03-21.41-6.38-28.63-15.06-7.22-8.7-10.62-19.66-9.59-30.91,1.9-20.53,18.22-37.43,38.1-38.38,1.92-.09,24.4-.05,24.4-.05.69,0,1.03-.83.54-1.32l-12.62-12.62c-2.25-2.25-2.25-5.9,0-8.15l.85-.85c2.25-2.25,5.9-2.25,8.15,0l22.28,22.29.08.07c.1.05.18.14.26.22l5.59,5.59c1.04,1.04,1.04,2.74,0,3.79l-27.6,27.58c-2.25,2.25-5.9,2.25-8.15,0l-.85-.85c-2.25-2.25-2.25-5.9,0-8.15l12.7-12.69v-.02Z"/>
</svg>
