<?xml version="1.0" encoding="UTF-8"?>
<svg id="Layer_1" data-name="Layer 1" xmlns="http://www.w3.org/2000/svg" viewBox="0 0 300 300">
  <defs>
    <style>
      .cls-1, .cls-2 {
        fill: #fff;
      }

      .cls-2 {
        stroke: #000;
        stroke-miterlimit: 10;
        stroke-width: 6px;
      }
    </style>
  </defs>
  <rect class="cls-2" x="16.57" y="16.57" width="266.86" height="266.86"/>
  <g>
    <path d="M184.53,80.13c0,1.43-.18,2.82-.52,4.15-.27,1.05-.64,2.06-1.09,3.02-2.68,5.67-8.46,9.59-15.15,9.59-9.26,0-16.76-7.5-16.76-16.76s7.5-16.76,16.76-16.76,16.76,7.5,16.76,16.76Z"/>
    <path d="M233.98,228.57c-2.4,1.37-5.13,1.63-7.6.94-2.47-.68-4.67-2.3-6.04-4.71l-22.61-39.85c-1.62-2.85-4.64-4.61-7.91-4.61h-12.51c-.77-7.23-3.06-14.01-6.54-20.01h28.92c4.38,0,8.42,2.35,10.58,6.16l27.48,48.44c2.73,4.8,1.04,10.91-3.76,13.64Z"/>
    <g>
      <path class="cls-1" d="M177.59,185.79c0,28.08-22.76,50.84-50.84,50.84s-50.84-22.76-50.84-50.84c0-15.77,7.18-29.87,18.45-39.2,4.41-3.64,9.45-6.56,14.92-8.57,4.51-1.65,9.32-2.68,14.32-2.98,1.04-.07,2.09-.1,3.15-.1,8.96,0,17.38,2.32,24.7,6.4,8.03,4.47,14.72,11.05,19.32,19,3.48,6,5.77,12.78,6.54,20.01.19,1.79.29,3.6.29,5.44Z"/>
      <path d="M171.59,185.79c-.23,16.88-9.47,32.19-24.51,39.99-15.02,7.79-33.86,6-47.34-4.13-13.44-10.1-20.37-27.7-17.07-44.24,4.03-20.26,21.65-35.79,42.49-36.43,25.39-.78,45.98,19.71,46.43,44.82.14,7.71,12.14,7.74,12,0-.47-26.59-19.07-50.63-45.64-55.72-26.17-5.01-52.95,8.77-63.44,33.38-8.85,20.76-4.42,45.24,11.13,61.6,14.83,15.61,38.3,21.59,58.77,14.77,23.3-7.76,38.85-29.6,39.18-54.04.1-7.72-11.9-7.73-12,0Z"/>
    </g>
    <path d="M163.87,116.94l-12.43,24.4s0,0-.01,0c-7.31-4.08-15.73-6.4-24.7-6.4-1.05,0-2.1.03-3.14.1l1.43-2.81-.04-.03c2.43-4.76.53-10.59-4.23-13.02-.55-.28-1.12-.5-1.69-.67-4.38-1.28-9.19.69-11.33,4.9-.66,1.29-.99,2.66-1.04,4.02,0,.01,0,.03,0,.04-.15,1.17-.05,2.39.33,3.58l2.26,6.97,2.92,9c1.4,4.3-.95,8.92-5.25,10.31l-.45.15c-4.3,1.39-8.91-.96-10.32-5.26l-1.84-5.65-5.87-18.04c-.67-2.06-.49-4.31.49-6.24l5.71-11.21c.98-1.94,2.7-3.4,4.77-4.07l37.8-12.29c5.28-1.72,11.01-1.26,15.94,1.25l4.62,2.36c6.81,3.47,9.52,11.8,6.05,18.61Z"/>
  </g>
</svg>