<?xml version="1.0" encoding="UTF-8"?>
<svg id="Layer_1" data-name="Layer 1" xmlns="http://www.w3.org/2000/svg" viewBox="0 0 300 300">
  <defs>
    <style>
      .cls-1 {
        fill: #004bc8;
      }

      .cls-2 {
        fill: #fff;
      }

      .cls-3 {
        fill: #ff7800;
        stroke: #ff7800;
        stroke-miterlimit: 10;
        stroke-width: 6px;
      }
    </style>
  </defs>
  <rect class="cls-3" x="9.93" y="95.25" width="280.14" height="109.51"/>
  <g>
    <path class="cls-2" d="M176.77,113.5c0,3.33-2.7,6.03-6.03,6.03-3.33,0-6.03-2.7-6.03-6.03s2.7-6.03,6.03-6.03c3.33,0,6.03,2.7,6.03,6.03Z"/>
    <path class="cls-2" d="M183.96,131.08v21.82c0,1.44-1.18,2.77-2.62,2.84-.87.04-1.65-.31-2.18-.89-.26-.28-.73-.1-.73.28v35.73c0,2.03-1.68,3.67-3.72,3.6-1.95-.06-3.48-1.73-3.48-3.69v-32.94c0-.27-.2-.51-.46-.53-.01,0-.02,0-.03,0s-.02,0-.03,0c-.27.02-.46.26-.46.53v32.94c0,1.96-1.52,3.63-3.48,3.69-2.04.07-3.72-1.57-3.72-3.6v-35.73c0-.38-.47-.57-.73-.28-.54.58-1.32.93-2.18.89-1.44-.07-2.62-1.4-2.62-2.84v-21.82c0-1.55.62-3.04,1.72-4.14l2.42-2.42c1.46-1.46,3.45-2.29,5.52-2.29h7.13c2.07,0,4.06.83,5.52,2.29l2.42,2.42c1.1,1.1,1.72,2.59,1.72,4.14Z"/>
  </g>
  <g>
    <path class="cls-1" d="M53.11,179.06c0,2.67,2.16,4.83,4.83,4.83,2.67,0,4.83-2.16,4.83-4.83,0-2.66-2.16-4.83-4.83-4.83-2.67,0-4.83,2.16-4.83,4.83Z"/>
    <path class="cls-1" d="M31.83,191.99c0,.68.28,1.3.72,1.74.45.45,1.06.72,1.74.72h7.59s0-.01,0-.01c2.25-.12,4.05-1.98,4.05-4.27v-.41h.01v-.02c0-1.17.95-2.12,2.12-2.12.87,0,1.63.53,1.95,1.28h.01l1.38,3.8c.5,1.36,2,2.07,3.37,1.57,1.07-.39,1.73-1.4,1.73-2.47,0-.3-.05-.6-.16-.89l-3.72-10.24c-.44-1.2-1.58-2.01-2.86-2.01h-8.84c-3.27,0-5.91,2.57-5.91,5.73,0,.44.05.86.14,1.27.34,1.44,1.17,2.37,1.59,2.78.15.15.35.33.61.51.24.18.11.56-.19.56h-2.8c-1.36,0-2.54,1.11-2.53,2.46Z"/>
  </g>
  <g>
    <circle class="cls-2" cx="106.59" cy="133.77" r="6.03"/>
    <path class="cls-2" d="M122.63,152.75v3.53c0,.61-.24,1.19-.67,1.62l-4.94,4.94c-.9.9-2.35.9-3.25,0l-.09-.1c-.9-.89-.9-2.35,0-3.25l3.33-3.33c.25-.25.43-.54.54-.85,0,0,0,0,0-.01.16-.35.25-.73.25-1.14,0-1.33-.95-2.43-2.21-2.67-.16-.03-.33-.05-.51-.05-1.5,0-2.72,1.22-2.72,2.72h-.01v11.44h0v26.15c0,1.52-1.26,2.75-2.79,2.7-1.47-.05-2.61-1.3-2.61-2.77v-24.73c0-.2-.17-.37-.37-.37-.2,0-.37.17-.37.37v24.73c0,1.47-1.14,2.72-2.61,2.77-1.53.05-2.79-1.18-2.79-2.7v-26.15h0v-11.44h-.01c0-1.5-1.22-2.72-2.72-2.72-.17,0-.34.02-.51.05-1.26.24-2.21,1.34-2.21,2.67,0,.41.09.79.25,1.14,0,0,0,0,0,.01.11.31.29.6.54.85l3.33,3.33c.9.9.9,2.35,0,3.25l-.09.1c-.9.89-2.35.89-3.25,0l-4.94-4.94c-.43-.43-.67-1.02-.67-1.62v-3.53c0-.61.24-1.19.67-1.62l7.89-7.89c1.1-1.1,2.59-1.72,4.14-1.72h6.68c1.55,0,3.04.62,4.14,1.72l7.89,7.89c.43.43.67,1.02.67,1.62Z"/>
  </g>
  <g>
    <g>
      <path class="cls-2" d="M269.98,140.99v4.52c0,.78-.31,1.53-.86,2.08l-6.34,6.33c-1.15,1.15-3.01,1.15-4.16,0l-.12-.12c-1.15-1.15-1.15-3.01,0-4.16l4.27-4.27c.32-.32.55-.69.69-1.09,0,0,0,0,0-.01.21-.44.32-.94.32-1.46,0-1.7-1.22-3.12-2.83-3.42-.21-.04-.43-.06-.65-.06-1.92,0-3.48,1.56-3.48,3.48h-.02v14.66h0v33.53c0,1.95-1.62,3.52-3.58,3.46-1.88-.06-3.34-1.67-3.34-3.55v-31.71c0-.26-.21-.48-.47-.48-.13,0-.25.05-.33.14-.09.09-.14.21-.14.34v31.71c0,1.88-1.46,3.49-3.34,3.55-1.96.07-3.58-1.51-3.58-3.46v-44.75c0-.49-.6-.74-.94-.39l-1.8,1.8c-.55.55-1.3.86-2.08.86h-8.96c-1.62,0-2.94-1.32-2.94-2.94v-.17c0-1.63,1.32-2.95,2.95-2.95h6.03c1.62,0,2.94-1.31,2.95-2.93,0-.41,0-.82,0-1.24h-.01c.01-1.06.03-2.12.05-3.18v-.02c0-1.49.6-2.93,1.65-3.98l2.32-2.32c.65-.65,1.42-1.18,2.24-1.55.96-.43,2-.66,3.07-.66h7.15c1.99,0,3.9.79,5.31,2.2l10.11,10.11c.55.55.86,1.3.86,2.08Z"/>
      <circle class="cls-2" cx="247.64" cy="119.52" r="6.03"/>
    </g>
    <path class="cls-2" d="M224.02,153.92c.18-1.28.76-2.67,2.13-3.03,1.16-.31,2.25.45,2.75,1.47.45.9.35,1.84.35,2.81,0,2.39,0,4.78,0,7.17v30.47c0,2.32,3.6,2.32,3.6,0v-18.64c0-6.46,0-12.91,0-19.37,0-2.9-.94-5.77-3.79-7.06-3.87-1.75-7.97,1.23-8.52,5.21-.13.97.24,1.92,1.26,2.21.84.24,2.08-.3,2.21-1.26h0Z"/>
  </g>
</svg>