<?xml version="1.0" encoding="UTF-8"?>
<svg id="Layer_1" data-name="Layer 1" xmlns="http://www.w3.org/2000/svg" viewBox="0 0 300 300">
  <defs>
    <style>
      .cls-1 {
        stroke: #fff;
      }

      .cls-1, .cls-2 {
        stroke-miterlimit: 10;
      }

      .cls-2 {
        fill: #fff;
        stroke: #000;
        stroke-width: 6px;
      }
    </style>
  </defs>
  <rect class="cls-2" x="15" y="15" width="270" height="270"/>
  <path class="cls-1" d="M199.32,91.36l-96.39-58.17c-2.3-1.39-5.23.27-5.23,2.95v225.06c0,1.68,1.37,3.05,3.05,3.05h30.51c1.67,0,3.05-1.38,3.05-3.05,0,0,.02-36.57.02-37.64,0-11.92,8.07-14.84,15.67-14.84s15.71,2.92,15.71,14.85c0,.79-.06,37.63-.06,37.63,0,1.69,1.37,3.05,3.05,3.05h30.89c1.47,0,2.68-1.2,2.68-2.68l.04.11V96.66c0-2.17-1.13-4.18-2.99-5.3ZM142.28,179.99c0,1.02-.83,1.84-1.84,1.84h-17.21c-1.02,0-1.84-.83-1.84-1.84v-26.53c0-1.02.83-1.84,1.84-1.84h17.21c1.02,0,1.84.83,1.84,1.84v26.53ZM142.28,136.06c0,1.02-.83,1.84-1.84,1.84h-17.21c-1.02,0-1.84-.83-1.84-1.84v-26.53c0-1.02.83-1.84,1.84-1.84h17.21c1.02,0,1.84.83,1.84,1.84v26.53ZM178.62,179.99c0,1.02-.82,1.84-1.84,1.84h-17.22c-1.02,0-1.84-.82-1.84-1.84v-26.53c0-1.02.82-1.84,1.84-1.84h17.22c1.02,0,1.84.82,1.84,1.84v26.53ZM178.62,136.06c0,1.02-.82,1.84-1.84,1.84h-17.22c-1.02,0-1.84-.82-1.84-1.84v-26.53c0-1.02.82-1.84,1.84-1.84h17.22c1.02,0,1.84.82,1.84,1.84v26.53Z"/>
</svg>