<?xml version="1.0" encoding="UTF-8"?>
<svg id="Layer_1" data-name="Layer 1" xmlns="http://www.w3.org/2000/svg" viewBox="0 0 300 300">
  <g id="wmDMA8.tif">
    <path fill="#fff" d="M77.84,76.17h144.31v128.75c0,3.86-.93,6.05-1.78,8.3-1.48,3.92-4.04,7.23-7.46,9.71-4.01,2.89-8.8,4.68-13.57,6-3.22.89-6.37,1.65-9.68,2.22l-15.9,2.72-10.49,1.69c-2.34.38-4.55.84-6.84,1.43-1.73.45-4.8,1.46-5.73,2.99-.31.51-.5,1.06-.72,1.56h-.03c-.23-.55-.41-1.02-.66-1.51-.72-1.4-3.85-2.33-5.34-2.74-2.15-.59-4.25-1.04-6.46-1.39l-10.34-1.64-16.5-2.83c-5.06-.87-12.59-2.86-17.27-4.96-6.59-2.95-11.46-5.88-13.84-12.78-.98-2.66-1.67-5.31-1.67-8.56l-.02-128.97Z"/>
  </g>
  <g>
    <g>
      <rect fill="#ff7800" x="80.11" y="78.49" width="69.89" height="77.18"/>
      <polygon fill="#004bc8" points="115.05 91.03 87.28 139.87 142.82 139.87 115.05 91.03"/>
    </g>
    <g>
      <path fill="#ff7800" d="M198.33,230.42c-20.15,3.71-35.8,6.5-35.8,6.5l-12.54,2.3v-83.55h69.89v61.38s-8.43,10.95-21.55,13.37Z"/>
      <polygon fill="#004bc8" points="184.94 168.21 157.17 217.05 212.71 217.05 184.94 168.21"/>
    </g>
    <path d="M171.02,104.43h.77c2.03,0,3.68,1.65,3.68,3.68v11.46c0,.44.52.66.83.35l21.11-21.11c1.44-1.44,3.77-1.44,5.21,0l.92.92c1.44,1.44,1.44,3.77,0,5.21l-20.8,20.8c-.31.31-.09.84.35.84h11.39c2.03,0,3.68,1.65,3.68,3.68v.77c0,2.03-1.65,3.68-3.68,3.68h-20.12s-.07,0-.07,0c-.07.02-.14.02-.21.02h-5.05c-.94,0-1.71-.76-1.71-1.7v-24.91c0-2.03,1.65-3.68,3.69-3.68Z"/>
    <path d="M129.7,201.39h-.77c-2.03,0-3.68-1.65-3.68-3.68v-11.46c0-.44-.52-.66-.83-.35l-21.11,21.11c-1.44,1.44-3.77,1.44-5.21,0l-.92-.92c-1.44-1.44-1.44-3.77,0-5.21l20.8-20.8c.31-.31.09-.84-.35-.84h-11.39c-2.03,0-3.68-1.65-3.68-3.68v-.77c0-2.03,1.65-3.68,3.68-3.68h20.12s.07,0,.07,0c.07-.02.14-.02.21-.02h5.05c.94,0,1.71.76,1.71,1.7v24.91c0,2.03-1.65,3.68-3.69,3.68Z"/>
  </g>
  <path d="M152.01,244.04h-4l-.68-1.5c-.07-.16-.13-.32-.2-.48-.12-.3-.24-.59-.36-.79-.21-.3-1.51-1.17-4.19-1.87-2.2-.57-4.35-1.03-6.57-1.38l-10.43-1.69-15.83-2.73c-3.03-.52-6.17-1.24-9.87-2.27-6.07-1.69-10.62-3.72-14.3-6.39-3.79-2.75-6.66-6.5-8.29-10.85l-.16-.42c-.83-2.2-1.77-4.68-1.77-8.75V73.67h149.31v131.24c0,4.07-.94,6.56-1.77,8.75l-.16.42c-1.64,4.35-4.5,8.1-8.29,10.85-3.68,2.67-8.23,4.7-14.3,6.39-3.7,1.03-6.84,1.75-9.87,2.27l-15.81,2.72-10.46,1.7c-2.22.36-4.37.81-6.57,1.39-2.68.7-3.99,1.56-4.2,1.87-.12.2-.24.49-.36.79-.07.16-.13.32-.2.48l-.66,1.5ZM80.34,78.67v126.24c0,3.16.67,4.93,1.45,6.98l.16.43c1.31,3.48,3.51,6.36,6.55,8.56,3.19,2.31,7.22,4.1,12.7,5.62,3.54.98,6.52,1.67,9.38,2.16l15.81,2.72,10.41,1.69c2.37.38,4.67.87,7.03,1.48,2.8.73,4.86,1.69,6.17,2.88,1.31-1.18,3.37-2.15,6.17-2.87,2.35-.61,4.65-1.1,7.03-1.48l10.43-1.69,15.79-2.72c2.86-.49,5.84-1.18,9.38-2.16,5.48-1.52,9.52-3.31,12.7-5.62,3.04-2.2,5.24-5.08,6.55-8.56l.16-.44c.78-2.05,1.45-3.83,1.45-6.98v-126.24H80.34Z"/>
</svg>
