<?xml version="1.0" encoding="UTF-8"?>
<svg id="Layer_1" data-name="Layer 1" xmlns="http://www.w3.org/2000/svg" viewBox="0 0 300 300">
  <defs>
    <style>
      .cls-1 {
        fill: #ff7800;
      }

      .cls-2 {
        fill: #004bc8;
      }
    </style>
  </defs>
  <rect class="cls-1" x="96.39" y="96.39" width="107.22" height="107.22"/>
  <path class="cls-2" d="M152.34,179.71l-.85-.85c-2.25-2.25-2.25-5.89,0-8.14l12.68-12.66c.48-.48.14-1.31-.54-1.31h-46.67c-3.18,0-5.75-2.58-5.75-5.76v-2.04c0-3.18,2.58-5.75,5.76-5.75h45.99c.68,0,1.03-.82.54-1.31l-12.59-12.6c-2.25-2.25-2.25-5.89,0-8.14l.85-.85c2.25-2.25,5.89-2.25,8.14,0l22.23,22.25.08.07c.09.05.18.14.26.22l5.58,5.57c1.04,1.04,1.04,2.73,0,3.78l-27.55,27.53c-2.25,2.25-5.89,2.25-8.14,0Z"/>
</svg>