<?xml version="1.0" encoding="UTF-8"?>
<svg id="Layer_1" data-name="Layer 1" xmlns="http://www.w3.org/2000/svg" viewBox="0 0 300 300">
  <defs>
    <style>
      .cls-1 {
        fill: #fff;
        stroke: #000;
        stroke-miterlimit: 10;
        stroke-width: 6px;
      }
    </style>
  </defs>
  <rect class="cls-1" x="16.57" y="16.57" width="266.86" height="266.86"/>
  <g>
    <circle cx="183.81" cy="80.23" r="16.76"/>
    <path d="M259.54,145.49v3.9c0,3.76-3.05,6.8-6.8,6.8h-42.05c-1.8,0-3.53-.72-4.81-1.99l-24.55-24.55c-1.09-1.07-3.24-2.89-6.46-3.92,0,0-2.46-.78-4.85-.78-8.53,0-15.45,6.92-15.45,15.45s6.75,15.27,15.14,15.44c8.27.02,16.53.03,24.8.05,3.41.37,6.06,3.26,6.06,6.76v7.14c0,1.81-.72,3.53-1.99,4.81l-47.92,47.92c-2.66,2.66-6.97,2.66-9.62,0l-2.92-2.92c-2.65-2.65-2.65-6.96,0-9.62l25.77-25.76c4.28-4.28,1.25-11.61-4.81-11.61h-23.45c-1.79,0-3.51.71-4.78,1.96l-64.63,63.73c-2.67,2.62-6.94,2.61-9.59-.03l-2.95-2.96c-2.66-2.65-2.66-6.96,0-9.62l58.9-58.9c1.7-1.7,2.33-4.17,1.78-6.52,0-.01,0-.03,0-.04-.18-.75-.45-2.12-.45-3.84,0-2.14.41-3.97.88-5.37.12-.37.28-.73.46-1.08,6.02-11.24,12.03-22.48,18.04-33.72,2.42-4.53-.86-10.01-6-10.01h-10.79c-1.8,0-3.53.72-4.81,1.99l-23.26,23.26c-2.65,2.66-6.97,2.65-9.62,0l-2.88-2.88c-2.65-2.65-2.65-6.96,0-9.62l28.3-28.3c1.26-1.26,2.98-1.98,4.76-1.99,25.6-.18,44.28-.21,49.44-.17.86,0,2.71.05,4.98.75,3.15.98,5.9,2.86,7.95,5.34.02.02.03.04.05.05l42.04,42.04c1.28,1.28,3.01,1.99,4.81,1.99h34.48c3.76,0,6.8,3.05,6.8,6.8Z"/>
    <polygon points="146.65 65.1 146.53 65.22 146.53 65.1 146.65 65.1"/>
  </g>
</svg>