<?xml version="1.0" encoding="UTF-8"?>
<svg id="Layer_1" data-name="Layer 1" xmlns="http://www.w3.org/2000/svg" viewBox="0 0 300 300">
  <defs>
    <style>
      .cls-1 {
        fill: #fff;
        stroke: #000;
        stroke-miterlimit: 10;
        stroke-width: 5px;
      }

      .cls-2 {
        fill: #ff7800;
      }

      .cls-3 {
        fill: #004bc8;
      }
    </style>
  </defs>
  <rect class="cls-1" x="78.57" y="70.17" width="142.85" height="142.85"/>
  <rect class="cls-2" x="139.86" y="78.57" width="73.57" height="73.57"/>
  <polygon class="cls-3" points="176.64 89.65 147.41 141.06 205.87 141.06 176.64 89.65"/>
  <g>
    <path d="M160.12,111.77c0,2.36-1.91,4.27-4.27,4.27-2.36,0-4.27-1.91-4.27-4.27s1.91-4.27,4.27-4.27c2.36,0,4.27,1.91,4.27,4.27Z"/>
    <path d="M165.22,124.23v15.47c0,1.02-.83,1.96-1.86,2.01-.61.03-1.17-.22-1.55-.63-.18-.2-.52-.07-.52.2v25.33c0,1.44-1.19,2.6-2.64,2.55-1.39-.05-2.46-1.23-2.46-2.62v-23.35c0-.19-.14-.36-.33-.37,0,0-.01,0-.02,0s-.01,0-.02,0c-.19.01-.33.18-.33.37v23.35c0,1.39-1.08,2.57-2.46,2.62-1.45.05-2.64-1.11-2.64-2.55v-25.33c0-.27-.33-.4-.52-.2-.38.41-.93.66-1.55.63-1.02-.05-1.86-.99-1.86-2.01v-15.47c0-1.1.44-2.16,1.22-2.93l1.71-1.71c1.04-1.04,2.45-1.62,3.92-1.62h5.05c1.47,0,2.88.59,3.92,1.62l1.71,1.71c.78.78,1.22,1.83,1.22,2.93Z"/>
  </g>
  <g>
    <path d="M140.55,123.39c0,2.36-1.91,4.27-4.27,4.27-2.36,0-4.27-1.91-4.27-4.27s1.91-4.27,4.27-4.27c2.36,0,4.27,1.91,4.27,4.27Z"/>
    <path d="M145.65,135.85v15.47c0,1.02-.83,1.96-1.86,2.01-.61.03-1.17-.22-1.55-.63-.18-.2-.52-.07-.52.2v25.33c0,1.44-1.19,2.6-2.64,2.55-1.39-.05-2.46-1.23-2.46-2.62v-23.35c0-.19-.14-.36-.33-.37,0,0-.01,0-.02,0s-.01,0-.02,0c-.19.01-.33.18-.33.37v23.35c0,1.39-1.08,2.57-2.46,2.62-1.45.05-2.64-1.11-2.64-2.55v-25.33c0-.27-.33-.4-.52-.2-.38.41-.93.66-1.55.63-1.02-.05-1.86-.99-1.86-2.01v-15.47c0-1.1.44-2.16,1.22-2.93l1.71-1.71c1.04-1.04,2.45-1.62,3.92-1.62h5.05c1.47,0,2.88.59,3.92,1.62l1.71,1.71c.78.78,1.22,1.83,1.22,2.93Z"/>
  </g>
  <g>
    <path d="M120.97,134.06c0,2.36-1.91,4.27-4.27,4.27-2.36,0-4.27-1.91-4.27-4.27s1.91-4.27,4.27-4.27c2.36,0,4.27,1.91,4.27,4.27Z"/>
    <path d="M126.07,146.52v15.47c0,1.02-.83,1.96-1.86,2.01-.61.03-1.17-.22-1.55-.63-.18-.2-.52-.07-.52.2v25.33c0,1.44-1.19,2.6-2.64,2.55-1.39-.05-2.46-1.23-2.46-2.62v-23.35c0-.19-.14-.36-.33-.37,0,0-.01,0-.02,0s-.01,0-.02,0c-.19.01-.33.18-.33.37v23.35c0,1.39-1.08,2.57-2.46,2.62-1.45.05-2.64-1.11-2.64-2.55v-25.33c0-.27-.33-.4-.52-.2-.38.41-.93.66-1.55.63-1.02-.05-1.86-.99-1.86-2.01v-15.47c0-1.1.44-2.16,1.22-2.93l1.71-1.71c1.04-1.04,2.45-1.62,3.92-1.62h5.05c1.47,0,2.88.59,3.92,1.62l1.71,1.71c.78.78,1.22,1.83,1.22,2.93Z"/>
  </g>
  <g>
    <path d="M101.4,146.99c0,2.36-1.91,4.27-4.27,4.27-2.36,0-4.27-1.91-4.27-4.27s1.91-4.27,4.27-4.27c2.36,0,4.27,1.91,4.27,4.27Z"/>
    <path d="M106.5,159.45v15.47c0,1.02-.83,1.96-1.86,2.01-.61.03-1.17-.22-1.55-.63-.18-.2-.52-.07-.52.2v25.33c0,1.44-1.19,2.6-2.64,2.55-1.39-.05-2.46-1.23-2.46-2.62v-23.35c0-.19-.14-.36-.33-.37,0,0-.01,0-.02,0s-.01,0-.02,0c-.19.01-.33.18-.33.37v23.35c0,1.39-1.08,2.57-2.46,2.62-1.45.05-2.64-1.11-2.64-2.55v-25.33c0-.27-.33-.4-.52-.2-.38.41-.93.66-1.55.63-1.02-.05-1.86-.99-1.86-2.01v-15.47c0-1.1.44-2.16,1.22-2.93l1.71-1.71c1.04-1.04,2.45-1.62,3.92-1.62h5.05c1.47,0,2.88.59,3.92,1.62l1.71,1.71c.78.78,1.22,1.83,1.22,2.93Z"/>
  </g>
</svg>