<?xml version="1.0" encoding="UTF-8"?>
<svg id="Layer_1" data-name="Layer 1" xmlns="http://www.w3.org/2000/svg" viewBox="0 0 300 300">
  <defs>
    <style>
      .cls-1, .cls-2 {
        fill: #fff;
      }

      .cls-2 {
        stroke: #000;
        stroke-miterlimit: 10;
        stroke-width: 5px;
      }

      .cls-3 {
        fill: #ff7800;
      }

      .cls-4 {
        fill: #004bc8;
      }
    </style>
  </defs>
  <rect class="cls-2" x="78.57" y="70.17" width="142.85" height="142.85"/>
  <g>
    <rect class="cls-3" x="95.85" y="87.45" width="108.29" height="108.29"/>
    <polygon class="cls-4" points="150 103.76 106.97 179.43 193.03 179.43 150 103.76"/>
  </g>
  <g>
    <path class="cls-1" d="M155.27,125.82c0,2.91-2.36,5.27-5.27,5.27-2.91,0-5.27-2.36-5.27-5.27s2.36-5.27,5.27-5.27c2.91,0,5.27,2.36,5.27,5.27Z"/>
    <path class="cls-1" d="M168.09,145.61v3.98c0,.69-.27,1.35-.76,1.83l-5.57,5.57c-1.01,1.01-2.65,1.01-3.66,0l-.1-.11c-1.01-1.01-1.01-2.65,0-3.66l3.75-3.76c.28-.28.48-.61.61-.96,0,0,0,0,0-.01.18-.39.28-.82.28-1.28,0-1.49-1.07-2.74-2.49-3.01-.18-.04-.38-.05-.57-.05-1.69,0-3.06,1.37-3.06,3.06h-.01v12.9h0v29.48c0,1.71-1.42,3.1-3.15,3.04-1.65-.05-2.94-1.47-2.94-3.12v-27.88c0-.23-.19-.42-.42-.42-.23,0-.42.19-.42.42v27.88c0,1.65-1.29,3.07-2.94,3.12-1.73.06-3.15-1.33-3.15-3.04v-29.48h0v-12.9h-.01c0-1.69-1.37-3.06-3.06-3.06-.2,0-.39.02-.57.05-1.42.27-2.49,1.51-2.49,3.01,0,.46.1.89.28,1.28,0,0,0,0,0,.01.12.35.33.68.61.96l3.75,3.76c1.01,1.01,1.01,2.65,0,3.66l-.1.11c-1.01,1.01-2.65,1.01-3.66,0l-5.57-5.57c-.48-.49-.76-1.14-.76-1.83v-3.98c0-.69.27-1.35.76-1.83l8.89-8.89c1.24-1.24,2.92-1.94,4.67-1.94h7.53c1.75,0,3.43.7,4.67,1.94l8.89,8.89c.49.49.76,1.14.76,1.83Z"/>
  </g>
</svg>