<?xml version="1.0" encoding="UTF-8"?>
<svg id="Layer_1" data-name="Layer 1" xmlns="http://www.w3.org/2000/svg" viewBox="0 0 300 300">
  <defs>
    <style>
      .cls-1 {
        fill: #004bc8;
      }

      .cls-2 {
        fill: #fff;
      }

      .cls-3 {
        fill: #ff7800;
      }
    </style>
  </defs>
  <rect class="cls-3" x="8.08" y="8.08" width="283.84" height="283.84"/>
  <polygon class="cls-1" points="150 50.83 37.22 249.17 262.78 249.17 150 50.83"/>
  <path class="cls-2" d="M181.66,176.81c.35,1.55.03,3.19-.92,4.47-.61.83-1.25,1.65-1.9,2.46-1.18,1.46-2.45,2.75-3.81,3.88s-2.91,2.05-4.65,2.75c-1.74.71-3.69,1.06-5.85,1.06-2.63,0-5.1-.45-7.41-1.34-2.3-.89-4.63-2-6.98-3.32-2.26-1.32-4.7-2.47-7.33-3.45-2.63-.99-5.59-1.48-8.88-1.48-1.6,0-2.99.31-4.16.92-1.51.79-2.86,1.81-4.07,3.05-.58.6-1.39,1.71-1.83,2.42-.66,1.07-1.24,1.7-2.43,1.66-3.02-.09-4.37-7.65-4.08-9.56.41-2.7,1.48-3.96,2.39-5.19,1.08-1.46,2.33-2.75,3.74-3.88,1.41-1.13,3.03-2.05,4.87-2.75,1.83-.7,3.92-1.06,6.28-1.06s4.98.45,7.62,1.34c2.63.89,5.31,1.95,8.04,3.17,2.63,1.13,5.22,2.26,7.76,3.38,2.54,1.13,4.75,1.69,6.63,1.69,1.41,0,2.7-.3,3.88-.92,1.17-.61,2.26-1.36,3.24-2.26,1.27-1.14,2.42-2.48,3.45-4.02,1.08-1.61,3.52-1.43,4.35.33.94,2,1.65,4.69,2.08,6.63Z"/>
</svg>