<?xml version="1.0" encoding="UTF-8"?>
<svg id="Layer_1" data-name="Layer 1" xmlns="http://www.w3.org/2000/svg" viewBox="0 0 300 300">
  <circle cx="173.59" cy="96.85" r="14.02"/>
  <path d="M236.91,151.43v3.26c0,3.14-2.55,5.69-5.69,5.69h-35.16c-1.51,0-2.96-.6-4.02-1.67l-20.53-20.53c-.91-.9-2.71-2.41-5.4-3.28,0,0-2.06-.65-4.06-.65-7.14,0-12.92,5.78-12.92,12.92s5.64,12.77,12.66,12.91c6.91.01,13.83.03,20.74.04,2.85.31,5.07,2.72,5.07,5.66v5.97c0,1.51-.6,2.96-1.67,4.02l-40.08,40.08c-2.22,2.22-5.83,2.22-8.05,0l-2.44-2.44c-2.22-2.22-2.22-5.82,0-8.05l21.55-21.54c3.58-3.58,1.04-9.71-4.02-9.71h-19.61c-1.5,0-2.93.59-4,1.64l-54.05,53.3c-2.23,2.19-5.81,2.18-8.02-.03l-2.47-2.47c-2.22-2.22-2.22-5.82,0-8.05l49.26-49.26c1.43-1.43,1.95-3.49,1.48-5.45,0,0,0-.02,0-.03-.15-.63-.37-1.77-.37-3.21,0-1.79.35-3.32.74-4.49.1-.31.23-.61.39-.9,5.03-9.4,10.06-18.8,15.08-28.19,2.02-3.79-.72-8.37-5.02-8.37h-9.02c-1.51,0-2.96.6-4.02,1.67l-19.45,19.45c-2.22,2.22-5.83,2.22-8.05,0l-2.41-2.41c-2.22-2.22-2.22-5.82,0-8.04l23.66-23.67c1.05-1.05,2.49-1.65,3.98-1.67,21.41-.15,37.03-.18,41.35-.15.72,0,2.27.04,4.16.63,2.63.82,4.94,2.39,6.65,4.47.01.02.03.03.05.05l35.15,35.15c1.07,1.07,2.52,1.67,4.02,1.67h28.83c3.14,0,5.69,2.55,5.69,5.69Z"/>
  <polygon points="142.51 84.19 142.41 84.3 142.41 84.19 142.51 84.19"/>
</svg>