<?xml version="1.0" encoding="UTF-8"?>
<svg id="Layer_1" data-name="Layer 1" xmlns="http://www.w3.org/2000/svg" viewBox="0 0 300 300">
  <defs>
    <style>
      .cls-1 {
        fill: #ff7800;
        stroke: #f47820;
        stroke-miterlimit: 10;
        stroke-width: 6px;
      }

      .cls-2 {
        fill: #004bc8;
      }
    </style>
  </defs>
  <rect class="cls-1" x="16.57" y="16.57" width="266.86" height="266.86"/>
  <g>
    <path class="cls-2" d="M166.75,45.83c0,9.26-7.5,16.75-16.75,16.76-9.26,0-16.75-7.5-16.75-16.76s7.5-16.75,16.75-16.76c9.26,0,16.75,7.51,16.75,16.76Z"/>
    <path class="cls-2" d="M186.76,94.71v60.67c0,4.01-3.27,7.69-7.28,7.89-2.41.12-4.58-.85-6.07-2.46-.72-.78-2.03-.28-2.03.79v99.34c0,5.64-4.67,10.19-10.35,10-5.43-.18-9.66-4.82-9.66-10.26v-91.57c0-.74-.54-1.42-1.28-1.46-.03,0-.05,0-.09,0s-.05,0-.09,0c-.74.04-1.28.72-1.28,1.46v91.57c0,5.44-4.23,10.08-9.66,10.26-5.68.19-10.35-4.36-10.35-10v-99.34c0-1.07-1.3-1.57-2.03-.79-1.49,1.61-3.66,2.59-6.07,2.46-4.01-.21-7.28-3.88-7.28-7.9v-60.66c0-4.32,1.72-8.46,4.77-11.51l6.72-6.72c4.07-4.07,9.59-6.36,15.35-6.36h19.82c5.76,0,11.28,2.3,15.35,6.37l6.72,6.72c3.05,3.06,4.77,7.19,4.77,11.51Z"/>
  </g>
</svg>