<?xml version="1.0" encoding="UTF-8"?>
<svg id="Layer_1" data-name="Layer 1" xmlns="http://www.w3.org/2000/svg" viewBox="0 0 300 300">
  <defs>
    <style>
      .cls-1 {
        fill: #fff;
      }

      .cls-1, .cls-2 {
        stroke: #ff7800;
        stroke-miterlimit: 10;
        stroke-width: 8px;
      }

      .cls-2 {
        fill: none;
      }
    </style>
  </defs>
  <circle class="cls-1" cx="156.61" cy="150" r="87.67"/>
  <path d="M202.56,157.79c1.09,1.52,1.22,3.08,1.24,3.67v37.79c0,3.73-2.69,7.02-6.39,7.51-2.43.32-4.68-.55-6.23-2.1-1.33-1.34-2.16-3.19-2.16-5.23v-20.12c0-2.53-2.05-4.57-4.57-4.57h-4.75c-5.16,0-9.34-4.18-9.34-9.34h-21.29c-5.67,0-10.27,4.6-10.27,10.27v23.58c0,3.73-2.7,7.02-6.4,7.51-2.43.32-4.67-.55-6.23-2.1-1.33-1.34-2.16-3.19-2.16-5.23v-40.99c-3.01-3.59-4.83-8.22-4.83-13.27v-17.66h-4.89c-7.58,0-13.72-6.15-13.72-13.72h15.66v-.78c0-.33.02-.67.05-1,.59-6.21,6.62-11.09,13.98-11.09,1.65,0,3.22.25,4.69.7v-9.32c2.58,0,4.92,1.05,6.61,2.73,1.69,1.69,2.73,4.03,2.73,6.61v19.95c0,4.93,3.99,8.92,8.92,8.92h30.23c2.43,0,4.68.76,6.53,2.07l13.86-10.4c3.63,4.84,2.65,11.71-2.19,15.34l-3.68,2.76c-.44.34-.85.71-1.21,1.12-.06.07-.12.13-.17.2-1.64,1.5-2.67,3.67-2.67,6.07,0,1.32.31,2.57.87,3.68.91,1.82,2.49,3.26,4.42,3.99.55.18,2.15.78,3.35,2.44Z"/>
  <line class="cls-2" x1="94.95" y1="211.22" x2="218.27" y2="87.9"/>
</svg>