<?xml version="1.0" encoding="UTF-8"?>
<svg id="Layer_1" data-name="Layer 1" xmlns="http://www.w3.org/2000/svg" viewBox="0 0 300 300">
  <defs>
    <style>
      .cls-1 {
        stroke: #000;
        stroke-miterlimit: 10;
        stroke-width: 5px;
      }

      .cls-1, .cls-2 {
        fill: #fff;
      }

      .cls-3 {
        fill: #ff7800;
      }

      .cls-4 {
        fill: #004bc8;
      }
    </style>
  </defs>
  <rect class="cls-1" x="79.86" y="77.14" width="140.28" height="140.28" transform="translate(-60.21 149.2) rotate(-45)"/>
  <path d="M149.82,171.33l-1.03,7.3,1.97.11c.94.05.28-6.89-.94-7.41Z"/>
  <path class="cls-2" d="M149.82,171.33c1.23.52,1.88,7.47.94,7.41l-1.97-.11,1.03-7.3Z"/>
  <polygon points="150 238.94 71.89 160.82 228.11 160.82 150 238.94"/>
  <rect class="cls-3" x="136" y="171.2" width="28" height="28"/>
  <polygon class="cls-4" points="150 175.42 138.87 194.98 161.13 194.98 150 175.42"/>
  <path d="M173.26,127.13c-.3.07-.45.37-.3.62l6.06,10.12c.56.95-.57,1.98-1.6,1.46l-16.55-8.42c-.3-.15-.66.05-.66.36v12.26c0,1.02.44,1.99,1.23,2.7l4.34,3.91c.25.23.68.13.79-.18l1.83-5.03c.5-1.39,2.65-1.39,3.16,0l4,11c.31.87-.26,1.76-1.17,1.97-.23.05-.12.03-.41.05h-48.76c-.24,0-.48-.05-.68-.13-.75-.31-1.19-1.11-.9-1.89l4-11c.5-1.39,2.64-1.39,3.16,0l1.74,4.79c.11.31.54.4.79.18l4.44-4c.79-.71,1.23-1.68,1.23-2.7v-11.98c0-.31-.36-.52-.66-.36l-16.63,8.45c-1.03.52-2.15-.52-1.59-1.46l6.16-10.3c.14-.24,0-.54-.28-.62-7.08-1.91-12.26-7.95-12.26-15.1s5-12.99,11.9-15c.28-.08.42-.38.27-.61l-5.8-9.68c-.56-.95.56-1.99,1.59-1.47l12.07,6.13c.24.12.54.02.65-.21,2.52-5.41,8.35-9.2,15.14-9.2s12.63,3.79,15.14,9.19c.11.23.41.33.65.21l12.06-6.12c1.03-.52,2.16.52,1.6,1.47l-5.68,9.48c-.15.24,0,.55.29.62,7.27,1.81,12.63,7.92,12.63,15.2s-5.54,13.6-12.99,15.28Z"/>
  <g>
    <g>
      <path class="cls-2" d="M157.4,160.75h0c-.68.24-1.42-.12-1.65-.8l-4.52-12.95c-.4-1.16-2.05-1.16-2.45,0l-4.52,12.95c-.24.67-.97,1.03-1.65.8-.54-.18-.87-.69-.87-1.22,0-.14.02-.28.07-.42l5.62-16.1c.05-.14.07-.28.07-.42v-2.94s0-.04,0-.06h0c0-1.15,0-2.3,0-3.44,0-.34-.13-.66-.37-.9l-4.22-4.2c-.24-.24-.37-.56-.37-.9v-1.95c0-.34.13-.66.37-.9l2.74-2.72c.5-.49,1.3-.5,1.8,0l.05.05c.5.49.5,1.3,0,1.79-.17.11-2.02,1.3-1.98,3.09.04,2.04,2.48,3.45,4.49,3.45s4.45-1.41,4.49-3.45c.03-1.79-1.81-2.99-1.98-3.09-.5-.49-.5-1.3,0-1.79l.05-.05c.5-.49,1.3-.49,1.8,0l2.74,2.72c.24.24.37.56.37.9v1.95c0,.34-.13.66-.37.9l-4.22,4.2c-.24.24-.37.56-.37.9,0,1.17,0,2.33,0,3.5v2.94c0,.14.02.29.07.42l5.62,16.1c.24.67-.12,1.41-.8,1.64Z"/>
      <path class="cls-2" d="M152.5,141.59h0v-1.95c0,.65,0,1.3,0,1.95Z"/>
    </g>
    <circle class="cls-2" cx="150" cy="129.86" r="2.46"/>
  </g>
</svg>