<?xml version="1.0" encoding="UTF-8"?>
<svg id="Layer_1" data-name="Layer 1" xmlns="http://www.w3.org/2000/svg" viewBox="0 0 300 300">
  <defs>
    <style>
      .cls-1 {
        fill: #fff;
      }

      .cls-2 {
        fill: #ff7800;
      }

      .cls-3 {
        fill: #004bc8;
      }
    </style>
  </defs>
  <rect class="cls-2" x="8.08" y="8.08" width="283.84" height="283.84"/>
  <polygon class="cls-3" points="150 50.83 37.22 249.17 262.78 249.17 150 50.83"/>
  <path class="cls-1" d="M144.82,206.98h10.36c2.21,0,4.01,1.79,4.01,4.01v9.12c0,2.21-1.79,4.01-4.01,4.01h-10.36c-2.21,0-4.01-1.79-4.01-4.01v-9.12c0-2.21,1.79-4.01,4.01-4.01ZM145.51,126.21h9.12c2.21,0,4.01,1.79,4.01,4.01v24.03c0,.14,0,.28-.02.43l-4.12,38.58c-.22,2.04-1.94,3.58-3.99,3.58h-.88c-2.05,0-3.77-1.55-3.99-3.58l-4.12-38.58c-.02-.14-.02-.28-.02-.43v-24.03c0-2.21,1.79-4.01,4.01-4.01Z"/>
</svg>