<?xml version="1.0" encoding="UTF-8"?>
<svg id="Layer_1" data-name="Layer 1" xmlns="http://www.w3.org/2000/svg" viewBox="0 0 300 300">
  <path d="M64.46,203.04c-.74,0-1.33-.6-1.36-1.34-.27-5.9,3.28-11.13,9.25-12.44,2.63-.58,5.44-.73,8.53-.87,1.04-.05,1.65-1.21,1.08-2.09l-9.56-14.69c-.74-1.14.48-2.54,1.71-1.96l14.37,6.79c.81.38,1.77-.12,1.91-1.01.66-4.42,2.21-8.43,5.12-11s6.52-3.06,11.05-3.04c1.14,0,1.77-1.29,1.07-2.19-8.17-10.41-8.09-25.24-3.42-38.02,6.22-17.02,24.77-21.89,41.5-17.86.76.18,1.51-.29,1.65-1.05l5.51-29.11c.28-1.48,2.41-1.46,2.66.03l5.01,29.56c.12.72.8,1.2,1.53,1.1,9.23-1.3,17.65.43,24.02,6.45,4.47,4.22,5.92,10.07,5.72,16.38-.03.89.84,1.55,1.7,1.32l9.73-2.59c1.23-.33,2.19,1.08,1.44,2.11l-6.33,8.64c-.34.46-.34,1.09-.01,1.56,3.5,5.05,5.77,10.59,5.91,17.03.02.76.63,1.38,1.39,1.35l19.31-.68c1.4-.05,1.94,1.8.74,2.52l-18.24,10.82c-.9.54-.88,1.87.05,2.35,5.28,2.7,8.01,8.44,5.34,14.1-.54,1.14-2.04,2.27-3.62,3.25-1.04.64-.75,2.25.45,2.47,6.69,1.24,12.84,3.44,16.06,10.08.44.9-.22,1.96-1.22,1.96l-160.04.08Z"/>
</svg>