<?xml version="1.0" encoding="UTF-8"?>
<svg id="Layer_1" data-name="Layer 1" xmlns="http://www.w3.org/2000/svg" viewBox="0 0 300 300">
  <defs>
    <style>
      .cls-1 {
        fill: #f47820;
        stroke: #f47820;
        stroke-miterlimit: 10;
        stroke-width: 6px;
      }

      .cls-2 {
        fill: #004bc8;
      }
    </style>
  </defs>
  <rect class="cls-1" x="16.57" y="16.57" width="266.86" height="266.86"/>
  <g>
    <g>
      <path class="cls-2" d="M83.7,113.88v12.58c0,2.17.87,4.26,2.4,5.79l17.62,17.61c3.2,3.2,8.37,3.2,11.58,0l.33-.34c3.2-3.19,3.2-8.37,0-11.57l-11.87-11.87c-.89-.89-1.53-1.93-1.92-3.04-.01-.01-.02-.03-.02-.04-.57-1.23-.89-2.61-.89-4.05,0-4.73,3.39-8.66,7.87-9.51.58-.11,1.19-.17,1.81-.17,5.35,0,9.68,4.33,9.68,9.68h.05v40.77h0v93.22c0,5.42,4.49,9.79,9.95,9.61,5.23-.17,9.29-4.64,9.29-9.87v-88.15c0-.73.59-1.32,1.32-1.33.37,0,.69.15.93.39.24.24.39.57.39.93v88.15c0,5.23,4.07,9.7,9.29,9.87,5.46.18,9.95-4.19,9.95-9.61v-124.41c0-1.37,1.66-2.05,2.62-1.09l5.02,5.01c1.53,1.54,3.62,2.4,5.79,2.4h24.9c4.52,0,8.19-3.67,8.19-8.19v-.46c0-4.53-3.67-8.19-8.19-8.19h-16.78c-4.51,0-8.17-3.64-8.19-8.15,0-1.15-.01-2.29-.02-3.44h.03c-.04-2.95-.09-5.9-.14-8.84v-.07c0-4.15-1.66-8.13-4.59-11.07l-6.46-6.46c-1.82-1.82-3.94-3.27-6.23-4.3-2.66-1.19-5.56-1.82-8.53-1.82h-19.88c-5.54,0-10.85,2.2-14.77,6.12l-28.11,28.11c-1.53,1.54-2.4,3.62-2.4,5.79Z"/>
      <circle class="cls-2" cx="145.83" cy="54.21" r="16.76"/>
    </g>
    <path class="cls-2" d="M220.64,147.76c-1.3-8.52-8.27-15.94-17.31-15.57s-15.33,8.39-15.93,16.77c-.38,5.32,0,10.83,0,16.15,0,24.15,0,48.31,0,72.46,0,6.85,0,13.7,0,20.55,0,5.79,9,5.8,9,0,0-34.08,0-68.16,0-102.24,0-1.82-.08-3.68,0-5.5.16-3.91,2.11-8.12,6.31-9.05,5.49-1.21,8.56,4.26,9.25,8.82.87,5.71,9.54,3.28,8.68-2.39h0Z"/>
  </g>
</svg>