<?xml version="1.0" encoding="UTF-8"?>
<svg id="Layer_1" data-name="Layer 1" xmlns="http://www.w3.org/2000/svg" viewBox="0 0 300 300">
  <defs>
    <style>
      .cls-1 {
        fill: #fff;
      }

      .cls-2 {
        fill: #ff7800;
      }

      .cls-3 {
        fill: #004bc8;
      }
    </style>
  </defs>
  <rect class="cls-2" x="7.17" y="7.17" width="285.66" height="285.66"/>
  <polygon class="cls-3" points="150 50.19 36.5 249.81 263.5 249.81 150 50.19"/>
  <path class="cls-1" d="M122.64,157.38c-2.38,0-4.26-2.06-4.04-4.43.32-3.35,1.01-6.47,2.07-9.37,1.52-4.14,3.72-7.68,6.62-10.63,2.9-2.94,6.39-5.22,10.49-6.83,4.09-1.61,8.67-2.42,13.73-2.42,4.23,0,8.16.62,11.8,1.86,3.63,1.24,6.81,3.04,9.52,5.38s4.85,5.27,6.42,8.76c1.56,3.5,2.35,7.45,2.35,11.87,0,3.22-.34,6-1.04,8.35-.69,2.35-1.61,4.37-2.76,6.07-1.15,1.7-2.46,3.22-3.93,4.55-1.47,1.33-2.95,2.65-4.42,3.93-1.75,1.47-3.36,2.9-4.83,4.28-1.47,1.38-2.76,2.92-3.86,4.62-1.1,1.7-1.95,3.71-2.55,6-.36,1.37-.61,2.93-.75,4.67-.17,2.1-1.9,3.75-4.01,3.75h-6.92c-2.28,0-4.13-1.9-4.04-4.18.1-2.28.27-4.32.54-6.1.41-2.8,1.08-5.26,2-7.38.92-2.11,2.05-3.98,3.38-5.59,1.33-1.61,2.92-3.2,4.76-4.76,1.47-1.29,2.87-2.48,4.21-3.59,1.33-1.1,2.53-2.32,3.59-3.66,1.06-1.33,1.88-2.83,2.49-4.49.59-1.65.9-3.63.9-5.93,0-2.76-.48-5.13-1.45-7.11-.97-1.98-2.14-3.56-3.52-4.76-1.38-1.2-2.85-2.07-4.42-2.62-1.57-.55-2.94-.83-4.14-.83-5.7,0-9.92,1.86-12.63,5.59-2.17,2.97-3.47,6.75-3.91,11.33-.2,2.06-1.92,3.64-3.99,3.64h-7.66ZM144.37,207.34h10.42c2.23,0,4.03,1.81,4.03,4.03v9.18c0,2.23-1.81,4.03-4.03,4.03h-10.42c-2.23,0-4.03-1.81-4.03-4.03v-9.18c0-2.23,1.81-4.03,4.03-4.03Z"/>
</svg>