<?xml version="1.0" encoding="UTF-8"?>
<svg id="Layer_1" data-name="Layer 1" xmlns="http://www.w3.org/2000/svg" viewBox="0 0 300 300">
  <defs>
    <style>
      .cls-1 {
        fill: #fff;
        stroke: #000;
        stroke-miterlimit: 10;
        stroke-width: 6px;
      }
    </style>
  </defs>
  <rect class="cls-1" x="15" y="15" width="270" height="270"/>
  <path d="M217.26,186.36v15.58c0,2.07-2.98,2.84-4.08,1.74l-9.58-6.97c-.32-.31-1.34-.13-1.29.56v63.93c0,.13,0,.25-.04.38,0,.09-.02.16-.02.25-.31,1.38-1.55,2.43-3,2.43h-30.55c-1.69,0-3.05-1.37-3.05-3.05,0,0,.05-36.84.05-37.63,0-11.93-8.01-14.86-15.7-14.86s-15.67,2.93-15.67,14.84c0,1.08-.02,37.64-.02,37.64,0,1.67-1.38,3.05-3.05,3.05h-30.51c-1.67,0-3.05-1.38-3.05-3.05v-63.93c0-.68-.81-1.02-1.29-.56l-9.58,6.97c-1.11,1.1-4.08.32-4.08-1.74v-15.58c0-4.17.7-5.71,1.92-6.88l63.57-56.53c.99-.93,2.52-.93,3.5,0h.02v.02l16.69,14.82,11.27,10.01c.49.45,1.29-.14,1.29-.81v-13.84c0-1.4,1.15-2.55,2.55-2.55h10.58c1.4,0,2.55,1.15,2.55,2.55v27.49c0,.7.29,2.37.79,2.86l17.84,15.97c1.22,1.17,1.92,2.71,1.92,6.88Z"/>
</svg>